<?xml version="1.0" standalone="no"?>
<!DOCTYPE svg PUBLIC "-//W3C//DTD SVG 20010904//EN"
 "http://www.w3.org/TR/2001/REC-SVG-20010904/DTD/svg10.dtd">
<svg version="1.0" xmlns="http://www.w3.org/2000/svg"
 width="282.000000pt" height="282.000000pt" viewBox="0 0 282.000000 282.000000"
 preserveAspectRatio="xMidYMid meet">
<metadata>
Created by potrace 1.11, written by Peter Selinger 2001-2013
</metadata>
<g transform="translate(0.000000,282.000000) scale(0.100000,-0.100000)"
fill="#000000" stroke="none">
<path d="M1278 2815 c-2 -2 -25 -6 -53 -9 -368 -48 -718 -257 -947 -564 -53
-71 -166 -274 -173 -311 -2 -9 -10 -34 -18 -56 -22 -56 -55 -181 -64 -240 -9
-60 -11 -371 -2 -435 6 -45 35 -172 46 -200 3 -8 7 -22 9 -30 4 -20 30 -82 76
-180 92 -195 250 -387 418 -505 30 -22 57 -42 60 -45 15 -17 227 -130 244
-130 2 0 21 -8 42 -17 22 -9 44 -17 49 -19 6 -1 36 -9 68 -19 129 -38 255 -53
406 -50 152 3 164 5 296 35 164 38 322 107 475 209 104 69 288 250 357 351 73
107 158 275 180 355 1 6 14 51 28 100 34 121 40 173 40 355 0 205 -15 302 -73
470 -43 122 -153 322 -224 405 -9 11 -26 31 -38 45 -49 57 -89 97 -139 140
-29 25 -62 53 -74 63 -11 9 -23 17 -27 17 -3 0 -15 8 -26 18 -19 16 -31 23
-86 55 -13 6 -25 14 -28 17 -11 11 -118 60 -184 85 -163 61 -338 93 -513 93
-67 0 -124 -2 -125 -3z"/>
</g>
</svg>
